<?xml version="1.0" encoding="UTF-8" standalone="no"?>
<svg
   xmlns:dc="http://purl.org/dc/elements/1.1/"
   xmlns:cc="http://creativecommons.org/ns#"
   xmlns:rdf="http://www.w3.org/1999/02/22-rdf-syntax-ns#"
   xmlns:svg="http://www.w3.org/2000/svg"
   xmlns="http://www.w3.org/2000/svg"
   xmlns:sodipodi="http://sodipodi.sourceforge.net/DTD/sodipodi-0.dtd"
   xmlns:inkscape="http://www.inkscape.org/namespaces/inkscape"
   width="512"
   height="512"
   viewBox="0 0 135.46667 135.46667"
   version="1.1"
   id="svg8"
   inkscape:version="1.0.1 (3bc2e813f5, 2020-09-07)"
   sodipodi:docname="favicon.svg"
   inkscape:export-filename="/home/variscite/Documents/Programming/Web/Hackathons/chicow-moovers.github.io/favicon.png"
   inkscape:export-xdpi="96"
   inkscape:export-ydpi="96">
  <defs
     id="defs2">
    <filter
       inkscape:collect="always"
       style="color-interpolation-filters:sRGB"
       id="filter590"
       x="-0.14009249"
       width="1.280185"
       y="-0.088433353"
       height="1.1768667">
      <feGaussianBlur
         inkscape:collect="always"
         stdDeviation="4.8297879"
         id="feGaussianBlur592" />
    </filter>
  </defs>
  <sodipodi:namedview
     id="base"
     pagecolor="#ffffff"
     bordercolor="#666666"
     borderopacity="1.0"
     inkscape:pageopacity="0.0"
     inkscape:pageshadow="2"
     inkscape:zoom="3.9151949"
     inkscape:cx="495.61824"
     inkscape:cy="-23.99161"
     inkscape:document-units="mm"
     inkscape:current-layer="layer3"
     inkscape:document-rotation="0"
     showgrid="true"
     units="px"
     width="128px"
     inkscape:window-width="1848"
     inkscape:window-height="1014"
     inkscape:window-x="0"
     inkscape:window-y="29"
     inkscape:window-maximized="1">
    <inkscape:grid
       type="xygrid"
       id="grid10" />
  </sodipodi:namedview>
  <metadata
     id="metadata5">
    <rdf:RDF>
      <cc:Work
         rdf:about="">
        <dc:format>image/svg+xml</dc:format>
        <dc:type
           rdf:resource="http://purl.org/dc/dcmitype/StillImage" />
        <dc:title />
      </cc:Work>
    </rdf:RDF>
  </metadata>
  <g
     inkscape:groupmode="layer"
     id="layer3"
     inkscape:label="Border">
    <rect
       style="fill:#f9f9f9;stroke-width:0.264583"
       id="rect29"
       width="127"
       height="132.29167"
       x="5.2916665"
       y="0"
       ry="17.197916"
       inkscape:export-filename="/home/variscite/Documents/Programming/Web/Hackathons/chicow-moovers.github.io/favicon.png"
       inkscape:export-xdpi="96"
       inkscape:export-ydpi="96" />
  </g>
  <g
     inkscape:groupmode="layer"
     id="layer2"
     inkscape:label="Shadow"
     style="opacity:1;filter:url(#filter590)">
    <path
       id="path320-3"
       style="fill:#cccccc;stroke-width:0.363014"
       d="M 50.811099,0.21453 C 43.028655,1.907827 39.13744,15.4542 37.191831,20.53409 v 8.461193 89.750007 c -1.94562,3.3866 -3.891227,8.46648 -7.782449,13.54638 h 42.803431 c -3.89123,-5.0799 -5.836838,-10.15978 -7.782446,-13.54638 v -3.38659 h 23.347322 v 16.93297 H 99.451346 111.125 l -7.78241,-6.77319 -3.891244,-6.77319 V 27.307276 23.920684 c 1e-5,-16.8919049 0,-16.1810598 0,-16.9329672 -1.441322,5.4884382 -6.24672,3.4404122 -11.673657,0 V 20.384604 c -0.186424,1.870676 -0.263805,2.91044 -1.945607,3.53608 H 64.430367 v 3.386592 h 23.347322 v 82.122904 c -0.200987,0.43459 -0.386104,2.32375 -1.945607,2.54193 H 83.410708 64.430367 V 29.130881 c 0,-5.210142 -1.945609,-1.823605 0,-8.596791 C 62.484758,15.4542 59.090208,1.9538428 50.811099,0.21453 Z"
       sodipodi:nodetypes="cccccccccccccccscccccccccccscc" />
  </g>
  <g
     inkscape:label="Layer 1"
     inkscape:groupmode="layer"
     id="layer1">
    <path
       id="rocket0"
       style="fill:#b3b3b3;stroke-width:0.325683"
       d="M 54.684825,1.1494791 C 48.372858,2.8299408 45.216874,16.273634 43.638883,21.31502 v 8.397058 89.069712 c -1.577993,3.36093 -3.155984,8.40231 -6.311968,13.4437 h 34.71582 C 68.88675,127.1841 67.30876,122.14272 65.730767,118.78179 v -3.36092 h 18.9359 v 16.80462 h 9.467952 9.467951 l -6.311966,-6.72185 -3.155985,-6.72185 V 28.036867 24.675944 c 4e-6,-16.7638673 0,-16.0584103 0,-16.8046183 -1.168992,5.4468373 -5.066425,3.4143343 -9.467952,0 V 21.166667 c -0.151205,1.856496 -0.213955,2.888379 -1.57799,3.509277 h -17.35791 v 3.360923 h 18.9359 v 81.500423 c -0.163008,0.4313 -0.313152,2.30614 -1.57799,2.52266 H 81.124816 65.730767 V 29.846647 c 0,-5.170649 -1.577992,-1.80978 0,-8.531627 C 64.152775,16.273634 61.399616,2.875608 54.684825,1.1494791 Z"
       sodipodi:nodetypes="cccccccccccccccscccccccccccscc" />
    <path
       id="path320"
       style="fill:#4d4d4d;stroke-width:0.325683"
       d="M 54.684825,1.1494791 C 48.372858,2.8299408 45.216874,16.273634 43.638883,21.31502 v 8.397058 89.069712 c -1.577993,3.36093 -3.155984,8.40231 -6.311968,13.4437 h 34.71582 C 68.88675,127.1841 67.30876,122.14272 65.730767,118.78179 v -3.36092 h 18.9359 v 16.80462 h 9.467952 9.467951 l -6.311966,-6.72185 -3.155985,-6.72185 V 28.036867 24.675944 c 4e-6,-16.7638673 0,-16.0584103 0,-16.8046183 -1.168992,5.4468373 -5.066425,3.4143343 -9.467952,0 V 21.166667 c -0.151205,1.856496 -0.213955,2.888379 -1.57799,3.509277 h -17.35791 v 3.360923 h 18.9359 v 81.500423 c -0.163008,0.4313 -0.313152,2.30614 -1.57799,2.52266 H 81.124816 65.730767 V 29.846647 c 0,-5.170649 -1.577992,-1.80978 0,-8.531627 C 64.152775,16.273634 61.399616,2.875608 54.684825,1.1494791 Z"
       sodipodi:nodetypes="cccccccccccccccscccccccccccscc" />
  </g>
</svg>
