<?xml version="1.0" encoding="UTF-8" standalone="no"?>
<svg
   xmlns:dc="http://purl.org/dc/elements/1.1/"
   xmlns:cc="http://creativecommons.org/ns#"
   xmlns:rdf="http://www.w3.org/1999/02/22-rdf-syntax-ns#"
   xmlns:svg="http://www.w3.org/2000/svg"
   xmlns="http://www.w3.org/2000/svg"
   xmlns:sodipodi="http://sodipodi.sourceforge.net/DTD/sodipodi-0.dtd"
   xmlns:inkscape="http://www.inkscape.org/namespaces/inkscape"
   width="50mm"
   height="50mm"
   viewBox="0 0 50 50"
   version="1.1"
   id="svg8"
   inkscape:version="1.0.1 (3bc2e813f5, 2020-09-07)"
   sodipodi:docname="themeSwitch.svg">
  <defs
     id="defs2" />
  <sodipodi:namedview
     id="base"
     pagecolor="#ffffff"
     bordercolor="#666666"
     borderopacity="1.0"
     inkscape:pageopacity="0.0"
     inkscape:pageshadow="2"
     inkscape:zoom="2.3632317"
     inkscape:cx="-8.196646"
     inkscape:cy="86.361313"
     inkscape:document-units="mm"
     inkscape:current-layer="layer1"
     inkscape:document-rotation="0"
     showgrid="true"
     inkscape:pagecheckerboard="true"
     inkscape:window-width="1428"
     inkscape:window-height="872"
     inkscape:window-x="95"
     inkscape:window-y="124"
     inkscape:window-maximized="0">
    <inkscape:grid
       type="xygrid"
       id="grid10"
       dotted="true"
       spacingx="0.26458333" />
  </sodipodi:namedview>
  <metadata
     id="metadata5">
    <rdf:RDF>
      <cc:Work
         rdf:about="">
        <dc:format>image/svg+xml</dc:format>
        <dc:type
           rdf:resource="http://purl.org/dc/dcmitype/StillImage" />
        <dc:title></dc:title>
        <cc:license
           rdf:resource="" />
      </cc:Work>
    </rdf:RDF>
  </metadata>
  <g
     inkscape:label="Layer 1"
     inkscape:groupmode="layer"
     id="layer1">
    <path
       id="path12"
       style="fill:#333333;stroke-width:0.999999"
       d="M 94.828125 10 A 85.000003 85.000003 0 0 0 10 95 A 85.000003 85.000003 0 0 0 95 180 A 85.000003 85.000003 0 0 0 180 95 A 85.000003 85.000003 0 0 0 95 10 A 85.000003 85.000003 0 0 0 94.828125 10 z M 81.945312 16.580078 C 82.51912 16.581677 83.094865 16.593654 83.673828 16.615234 C 93.999926 17.000139 97 20 97 20 C 100 22 100 26 100 30 L 100 165 C 99 166 101 165 99 167 C 96 169 94.000654 170.00004 90.669922 169.47852 C 51.114158 163.28497 19.999998 132.24443 20 92.5 C 20.000002 55.701941 45.795449 16.479351 81.945312 16.580078 z "
       transform="scale(0.26458333)" />
  </g>
</svg>
